<?xml version="1.0" encoding="utf-8"?>
<!-- Generator: Adobe Illustrator 16.0.3, SVG Export Plug-In . SVG Version: 6.00 Build 0)  -->
<!DOCTYPE svg PUBLIC "-//W3C//DTD SVG 1.1//EN" "http://www.w3.org/Graphics/SVG/1.1/DTD/svg11.dtd">
<svg version="1.1" id="Calque_1" xmlns="http://www.w3.org/2000/svg" xmlns:xlink="http://www.w3.org/1999/xlink" x="0px" y="0px"
	 width="570.058px" height="763.668px" viewBox="565.37 43.361 570.058 763.668"
	 enable-background="new 565.37 43.361 570.058 763.668" xml:space="preserve">
<path d="M1075.936,352.002c32.85,0,59.492-26.634,59.492-59.493c0-32.851-26.643-59.485-59.492-59.485h-14.916l13.674-130.178
	c3.461-32.851-20.375-59.485-53.242-59.485c-32.852,0-62.283,26.634-65.727,59.485l-13.684,130.178H817.179l13.683-130.178
	c3.453-32.851-20.375-59.485-53.243-59.485c-32.85,0-62.282,26.634-65.734,59.485l-13.675,130.178h-46.976
	c-32.859,0-59.493,26.634-59.493,59.485c0,32.859,26.634,59.493,59.493,59.493h34.483l-15.196,144.465h-45.657
	c-32.859,0-59.493,26.625-59.493,59.484s26.634,59.484,59.493,59.484h33.165l-13.896,132.108
	c-3.452,32.859,20.384,59.485,53.234,59.485s62.291-26.626,65.744-59.485l13.887-132.108H901.87l-13.896,132.108
	c-3.443,32.859,20.385,59.485,53.244,59.485c32.857,0,62.281-26.626,65.734-59.485l13.887-132.108h28.734
	c32.852,0,59.494-26.625,59.494-59.484s-26.643-59.485-59.494-59.485h-16.225l15.18-144.464H1075.936L1075.936,352.002z
	 M914.352,496.466H789.499l15.171-144.464h124.872L914.352,496.466z"/>
</svg>
