<?xml version="1.0" encoding="utf-8"?>
<!-- Generator: Adobe Illustrator 16.0.3, SVG Export Plug-In . SVG Version: 6.00 Build 0)  -->
<!DOCTYPE svg PUBLIC "-//W3C//DTD SVG 1.1//EN" "http://www.w3.org/Graphics/SVG/1.1/DTD/svg11.dtd">
<svg version="1.1" id="Calque_1" xmlns="http://www.w3.org/2000/svg" xmlns:xlink="http://www.w3.org/1999/xlink" x="0px" y="0px"
	 width="833.4px" height="833.383px" viewBox="432.704 8.757 833.4 833.383" enable-background="new 432.704 8.757 833.4 833.383"
	 xml:space="preserve">
<path d="M849.403,202.374c-13.955,0-25.256-11.302-25.256-25.257V34.014c0-13.946,11.301-25.257,25.256-25.257
	c13.947,0,25.248,11.311,25.248,25.257v143.112C874.651,191.072,863.35,202.374,849.403,202.374z"/>
<path d="M849.403,842.14c-13.955,0-25.256-11.302-25.256-25.257V673.788c0-13.946,11.301-25.257,25.256-25.257
	c13.947,0,25.248,11.311,25.248,25.257v143.104C874.651,830.838,863.35,842.14,849.403,842.14z"/>
<path d="M1240.846,450.688h-143.111c-13.947,0-25.258-11.293-25.258-25.248c0-13.946,11.311-25.256,25.258-25.256h143.111
	c13.947,0,25.258,11.31,25.258,25.256C1266.094,439.395,1254.784,450.688,1240.846,450.688z"/>
<path d="M601.064,450.688H457.952c-13.946,0-25.248-11.293-25.248-25.239s11.302-25.257,25.248-25.257h143.112
	c13.946,0,25.256,11.311,25.256,25.257S615.011,450.688,601.064,450.688z"/>
<path d="M1126.188,727.498c-6.463,0-12.926-2.466-17.857-7.398l-101.188-101.188c-9.865-9.864-9.865-25.844,0-35.699
	c9.855-9.865,25.842-9.865,35.707,0l101.197,101.179c9.863,9.865,9.863,25.853,0,35.708
	C1139.124,725.032,1132.651,727.498,1126.188,727.498z"/>
<path d="M673.815,275.108c-6.455,0-12.918-2.466-17.85-7.398L554.769,166.521c-9.864-9.856-9.864-25.843,0-35.708
	c9.865-9.864,25.853-9.864,35.717,0l101.196,101.188c9.864,9.856,9.864,25.852,0,35.716
	C686.741,272.642,680.278,275.108,673.815,275.108z"/>
<path d="M572.627,727.516c-6.463,0-12.926-2.467-17.858-7.398c-9.864-9.856-9.864-25.844,0-35.708l101.188-101.188
	c9.864-9.864,25.843-9.864,35.708,0c9.864,9.856,9.864,25.835,0,35.7L590.477,720.117
	C585.562,725.049,579.09,727.516,572.627,727.516z"/>
<path d="M1025.018,275.133c-6.463,0-12.936-2.466-17.859-7.398c-9.863-9.856-9.863-25.86,0-35.716l101.189-101.196
	c9.863-9.873,25.852-9.873,35.707,0c9.865,9.856,9.865,25.852,0,35.708l-101.188,101.197
	C1037.934,272.667,1031.481,275.133,1025.018,275.133z"/>
<path d="M849.403,590.101c-90.779,0-164.644-73.864-164.644-164.652c0-90.779,73.864-164.644,164.644-164.644
	c90.789,0,164.644,73.865,164.644,164.644C1014.047,516.236,940.192,590.101,849.403,590.101z M849.403,311.317
	c-62.938,0-114.139,51.193-114.139,114.131c0,62.929,51.201,114.14,114.139,114.14c62.937,0,114.13-51.202,114.13-114.14
	S912.34,311.317,849.403,311.317z"/>
</svg>
