<?xml version="1.0" encoding="utf-8"?>
<!-- Generator: Adobe Illustrator 16.0.3, SVG Export Plug-In . SVG Version: 6.00 Build 0)  -->
<!DOCTYPE svg PUBLIC "-//W3C//DTD SVG 1.1//EN" "http://www.w3.org/Graphics/SVG/1.1/DTD/svg11.dtd">
<svg version="1.1" id="Calque_1" xmlns="http://www.w3.org/2000/svg" xmlns:xlink="http://www.w3.org/1999/xlink" x="0px" y="0px"
	 width="576.063px" height="850.391px" viewBox="562.359 0 576.063 850.391" enable-background="new 562.359 0 576.063 850.391"
	 xml:space="preserve">
<path fill="#FFFFFF" d="M850.396,0C691.321,0,562.359,128.962,562.359,288.027c0,3.41,0.103,6.879,0.255,10.383
	c1.08,30.257,6.786,59.314,16.489,86.502c61.449,201.984,271.292,465.479,271.292,465.479s209.816-263.469,271.273-465.453
	c9.721-27.187,15.418-56.271,16.49-86.527c0.17-3.503,0.264-6.964,0.264-10.383C1138.43,128.962,1009.469,0,850.396,0z
	 M850.396,429.099c-77.904,0-141.072-63.167-141.072-141.071c0-77.896,63.168-141.063,141.072-141.063
	c77.912,0,141.07,63.167,141.07,141.063C991.465,365.932,928.307,429.099,850.396,429.099z"/>
</svg>
