<?xml version="1.0" encoding="utf-8"?>
<!-- Generator: Adobe Illustrator 16.0.3, SVG Export Plug-In . SVG Version: 6.00 Build 0)  -->
<!DOCTYPE svg PUBLIC "-//W3C//DTD SVG 1.1//EN" "http://www.w3.org/Graphics/SVG/1.1/DTD/svg11.dtd">
<svg version="1.1"
	 id="Calque_1" xmlns:dc="http://purl.org/dc/elements/1.1/" xmlns:cc="http://creativecommons.org/ns#" xmlns:rdf="http://www.w3.org/1999/02/22-rdf-syntax-ns#" xmlns:svg="http://www.w3.org/2000/svg" xmlns:sodipodi="http://sodipodi.sourceforge.net/DTD/sodipodi-0.dtd" xmlns:inkscape="http://www.inkscape.org/namespaces/inkscape"
	 xmlns="http://www.w3.org/2000/svg" xmlns:xlink="http://www.w3.org/1999/xlink" x="0px" y="0px" width="765.877px"
	 height="794.278px" viewBox="471.067 42.47 765.877 794.278" enable-background="new 471.067 42.47 765.877 794.278"
	 xml:space="preserve">
<g>
	<path fill="#67DC00" stroke="#000000" stroke-width="0.969" stroke-linejoin="round" d="M854.008,836.264
		c-210.892,0-382.456-176.387-382.456-393.185c0-138.136,71.875-267.775,187.563-338.358l54.073,93.676
		c-83.688,51.05-135.68,144.816-135.68,244.683c0,156.743,124.023,284.24,276.498,284.24c152.473,0,276.496-127.497,276.496-284.24
		c0-99.503-51.689-193.088-134.92-244.21l54.357-93.495c115.051,70.675,186.52,200.078,186.52,337.705
		C1236.444,659.877,1064.881,836.264,854.008,836.264z"/>
	
		<rect x="799.086" y="42.954" fill="#67DC00" stroke="#000000" stroke-width="0.969" stroke-linejoin="round" width="120.668" height="351.104"/>
	<path fill="#67DC00" d="M1084.532,528.271c0.002,3.909-0.767,7.089-1.717,7.1c-0.951,0.011-1.726-3.15-1.728-7.063
		c0-0.013,0-0.024,0-0.038c-0.002-3.909,0.766-7.089,1.717-7.1s1.726,3.15,1.728,7.062
		C1084.532,528.244,1084.532,528.258,1084.532,528.271z"/>
</g>
</svg>
