<?xml version="1.0" encoding="utf-8"?>
<!-- Generator: Adobe Illustrator 16.0.3, SVG Export Plug-In . SVG Version: 6.00 Build 0)  -->
<!DOCTYPE svg PUBLIC "-//W3C//DTD SVG 1.1//EN" "http://www.w3.org/Graphics/SVG/1.1/DTD/svg11.dtd">
<svg version="1.1" id="Calque_1" xmlns="http://www.w3.org/2000/svg" xmlns:xlink="http://www.w3.org/1999/xlink" x="0px" y="0px"
	 width="724.583px" height="567.321px" viewBox="488.104 148.682 724.583 567.321"
	 enable-background="new 488.104 148.682 724.583 567.321" xml:space="preserve">
<g>
	<g>
		<circle fill="#FFFFFF" cx="850.403" cy="470.444" r="113.102"/>
		<path fill="#FFFFFF" d="M1170.176,224.886H530.623c-23.479,0-42.52,19.04-42.52,42.52v406.078c0,23.488,19.04,42.52,42.52,42.52
			h639.543c23.488,0,42.52-19.031,42.52-42.52V267.405C1212.696,243.926,1193.655,224.886,1170.176,224.886z M850.403,617.426
			c-81.161,0-146.981-65.82-146.981-146.99c0-81.161,65.812-146.973,146.981-146.973c81.169,0,146.972,65.803,146.972,146.973
			S931.573,617.426,850.403,617.426z"/>
	</g>
	<path fill="#FFFFFF" d="M993.295,223.5c0,23.479-28.947,42.52-64.613,42.52H772.108c-35.666,0-64.596-19.04-64.596-42.52v-32.298
		c0-23.488,28.922-42.52,64.596-42.52h156.574c35.656,0,64.613,19.032,64.613,42.52V223.5z"/>
</g>
</svg>
