<?xml version="1.0" encoding="utf-8"?>
<!-- Generator: Adobe Illustrator 16.0.3, SVG Export Plug-In . SVG Version: 6.00 Build 0)  -->
<!DOCTYPE svg PUBLIC "-//W3C//DTD SVG 1.1//EN" "http://www.w3.org/Graphics/SVG/1.1/DTD/svg11.dtd">
<svg version="1.1" id="Calque_1" xmlns="http://www.w3.org/2000/svg" xmlns:xlink="http://www.w3.org/1999/xlink" x="0px" y="0px"
	 width="708.656px" height="838.58px" viewBox="496.068 5.905 708.656 838.58"
	 enable-background="new 496.068 5.905 708.656 838.58" xml:space="preserve">
<g>
	<path d="M1156.298,115.748h35.436c7.086,0,12.99-5.906,12.99-12.992V18.897c0-7.086-5.904-12.992-12.99-12.992H509.058
		c-7.086,0-12.99,5.906-12.99,12.992v83.858c0,7.086,5.904,12.992,12.99,12.992h35.436c7.086,0,11.811,4.724,12.99,11.811
		c12.992,126.377,67.322,236.22,147.639,297.638c-81.496,61.416-135.826,172.438-147.639,297.637
		c-1.182,7.086-5.904,11.811-12.99,11.811h-35.436c-7.086,0-12.99,5.904-12.99,12.992v83.857c0,7.086,5.904,12.992,12.99,12.992
		h682.676c7.086,0,12.99-5.906,12.99-12.992v-83.857c0-7.088-5.904-12.992-12.99-12.992h-35.436c-7.086,0-11.811-4.725-12.99-11.811
		c-12.992-126.379-67.322-236.221-147.639-297.637c81.496-61.417,135.826-172.441,147.639-297.638
		C1144.49,120.472,1149.212,115.748,1156.298,115.748z M940.16,447.635c82.676,46.064,141.729,151.184,155.904,272.834
		c1.182,7.086-4.727,14.174-12.992,14.174H617.718c-7.086,0-14.172-7.088-12.99-14.174
		c14.172-121.65,73.229-227.951,155.904-272.834c8.268-4.725,12.992-12.992,12.992-22.438c0-9.45-4.725-17.719-12.992-22.442
		c-82.678-46.063-141.732-151.18-155.906-272.833c-1.18-7.087,4.727-14.173,12.992-14.173h465.354
		c7.086,0,14.174,7.086,12.99,14.173c-14.174,121.653-73.229,227.951-155.902,272.833c-8.27,4.725-12.992,12.992-12.992,22.442
		C927.167,434.643,931.89,442.911,940.16,447.635z"/>
</g>
</svg>
