<?xml version="1.0" encoding="utf-8"?>
<!-- Generator: Adobe Illustrator 16.0.3, SVG Export Plug-In . SVG Version: 6.00 Build 0)  -->
<!DOCTYPE svg PUBLIC "-//W3C//DTD SVG 1.1//EN" "http://www.w3.org/Graphics/SVG/1.1/DTD/svg11.dtd">
<svg version="1.1" id="Calque_1" xmlns="http://www.w3.org/2000/svg" xmlns:xlink="http://www.w3.org/1999/xlink" x="0px" y="0px"
	 width="620.212px" height="758.208px" viewBox="537.453 41.856 620.212 758.208"
	 enable-background="new 537.453 41.856 620.212 758.208" xml:space="preserve">
<symbol  id="a" viewBox="-6.5 -8 13 16">
	<path fill="#FFFFFF" d="M-3.5,6C-3.5,5-3.5,6-3.5,6V4h2v2h3V4h2v2c0,0,0-1,0,0c0,2-1,2-2,2s-1,0-3,0S-3.5,7-3.5,6z"/>
	<g>
		<path fill="#FFFFFF" d="M6.5,4.5C6.5,4.775,6.275,5,6,5H-6c-0.275,0-0.5-0.225-0.5-0.5v-1C-6.5,3.225-6.275,3-6,3l0,0
			c0.275,0,0.5-0.225,0.5-0.5v-10C-5.5-7.775-5.275-8-5-8H5c0.274,0,0.5,0.225,0.5,0.5v10C5.5,2.775,5.725,3,6,3l0,0
			c0.274,0,0.5,0.225,0.5,0.5V4.5z M-2.5-5.5C-2.5-5.775-2.725-6-3-6l0,0c-0.275,0-0.5,0.225-0.5,0.5v7.414
			c0,0.275,0.225,0.5,0.5,0.5l0,0c0.275,0,0.5-0.225,0.5-0.5V-5.5z M0.5-5.5C0.5-5.775,0.275-6,0-6l0,0c-0.275,0-0.5,0.225-0.5,0.5
			v7.414c0,0.275,0.225,0.5,0.5,0.5l0,0c0.275,0,0.5-0.225,0.5-0.5V-5.5z M3.5-5.5C3.5-5.775,3.275-6,3-6l0,0
			C2.725-6,2.5-5.775,2.5-5.5v7.414c0,0.275,0.225,0.5,0.5,0.5l0,0c0.275,0,0.5-0.225,0.5-0.5V-5.5z"/>
	</g>
</symbol>
<use xlink:href="#a"  width="13" height="16" id="XMLID_1_" x="-6.5" y="-8" transform="matrix(47.7086 0 0 -47.388 847.5586 420.96)" overflow="visible"/>
</svg>
